<?xml version="1.0" encoding="utf-8"?>
<!-- Generator: Adobe Illustrator 25.2.0, SVG Export Plug-In . SVG Version: 6.00 Build 0)  -->
<svg version="1.1" id="Livello_1" xmlns="http://www.w3.org/2000/svg" xmlns:xlink="http://www.w3.org/1999/xlink" x="0px" y="0px"
	 viewBox="0 0 589.2 473.6" style="enable-background:new 0 0 589.2 473.6;" xml:space="preserve">
<style type="text/css">
	.st0{fill:#F4F0E2;}
	.st1{fill:#FDF6E0;}
	.st2{fill:#F9EAC3;}
	.st3{fill:#E8D5B9;}
	.st4{fill:#FFFFFF;}
	.st5{fill:none;stroke:#FFFFFF;stroke-miterlimit:10;}
	.st6{fill:#648F64;}
	.st7{fill:#F1E0B2;}
	.st8{fill:#DBE8D7;}
	.st9{fill:#BFD4C2;}
	.st10{fill:#FFFBF6;}
	.st11{fill:none;stroke:#FFFFFF;stroke-width:0.5;stroke-miterlimit:10;}
	.st12{fill:#D5E7F7;}
	.st13{fill:#E9C799;}
	.st14{fill:#B6D9BA;}
	.st15{fill:#669164;}
	.st16{fill:#EBBB57;}
	.st17{fill:#E79E43;}
	.st18{fill:#CF8E55;}
	.st19{fill:#8A6D5B;}
	.st20{fill:#DFB882;}
	.st21{fill:#ADD39B;}
	.st22{fill:#B4876E;}
	.st23{fill:#E4BF8C;}
	.st24{fill:#FFFFFD;}
	.st25{fill:#449373;}
	.st26{fill:#C0783D;}
	.st27{fill:#80695C;}
	.st28{fill:#BFD7BC;}
	.st29{clip-path:url(#SVGID_2_);fill:#F1E0B2;}
	.st30{clip-path:url(#SVGID_2_);fill:#FFFFFF;}
</style>
<g>
	<path class="st0" d="M588.8,7c0,0-150.2-30-225.4,97s-102,123-197.5,144S31.5,323,13.8,376s-12,61-12,61h587.1L588.8,7L588.8,7z"/>
	<path class="st1" d="M514.8,230.5c-85.2,17.8-35.3-178.9-151.4-95.4c-46.2,33.2-112.7-7-176.4,15c-58.5,20.2-44.1,86.3-38.4,108
		c11.4,43.7-45.5,26.3-78.5,45.1c-51.8,29.5-6.4,148.3,42.5,148.8s408.1-1,408.1-1s21.3-16.7,32.7-51.1
		C576.7,329.4,589.8,214.9,514.8,230.5z"/>
	<g>
		<path class="st2" d="M474.7,293.4h-60.2v90h17V346c0-9.2,6.1-16.8,13.6-16.8h2.2c7.5,0,13.6,7.6,13.6,16.8v37.4h13.8V293.4z"/>
		<path class="st3" d="M447.3,329.2h-2.2c-7.5,0-13.6,7.6-13.6,16.8v37.4h9.6v-36.5c0-6,4-10.9,8.8-10.9h2.2c4.9,0,8.8,4.9,8.8,10.9
			v36.5l0,0V346C460.9,336.8,454.8,329.2,447.3,329.2z"/>
		<path class="st3" d="M522.8,293.8l-48-0.4v90l11.7-1V345c0-9.2,6.1-16.8,13.6-16.8h2.2c7.5,0,13.6,7.6,13.6,16.8v34.7l6.8-0.6
			L522.8,293.8L522.8,293.8z"/>
		<path class="st4" d="M497.6,335h-2.2c-4.9,0-8.8,4.9-8.8,10.9v36.5l19.8-1.8v-34.7C506.4,339.9,502.5,335,497.6,335z"/>
		<path class="st2" d="M502.4,328.2h-2.2c-7.5,0-13.6,7.6-13.6,16.8v37.3l0,0v-36.5c0-6,4-10.9,8.8-10.9h2.2c4.9,0,8.8,4.9,8.8,10.9
			v34.7l9.6-0.8V345C516,335.8,509.9,328.2,502.4,328.2z"/>
		<path class="st4" d="M460.9,346.9c0-6-4-10.9-8.8-10.9h-2.2c-4.9,0-8.8,4.9-8.8,10.9v36.5h19.8V346.9z"/>
		<polyline class="st5" points="414.5,299.7 482,299.7 522.3,299.7 		"/>
		<polyline class="st5" points="414.5,305.6 482,305.6 522.3,305.6 		"/>
		<polyline class="st5" points="414.5,311.6 482,311.6 522.3,311.6 		"/>
		<polyline class="st5" points="414.5,317.5 482,317.5 522.3,317.5 		"/>
	</g>
	<g>
		<path class="st2" d="M254.5,234.7h-62.1v113.2h17.5v-47c0-11.6,6.3-21.1,14.1-21.1h2.3c7.7,0,14.1,9.5,14.1,21.1v47h14.2V234.7
			H254.5z"/>
		<path class="st3" d="M226.2,279.8h-2.3c-7.7,0-14.1,9.5-14.1,21.1v47h9.9V302c0-7.5,4.1-13.7,9.1-13.7h2.3c5,0,9.1,6.1,9.1,13.7
			v45.9l0,0v-47C240.3,289.3,233.9,279.8,226.2,279.8z"/>
		<path class="st3" d="M304.1,235.2l-49.5-0.5v113.2l12.1-1.3v-47c0-11.6,6.3-21.1,14.1-21.1h2.3c7.7,0,14.1,9.5,14.1,21.1v43.7
			l7-0.8V235.2H304.1z"/>
		<path class="st4" d="M278.1,287h-2.3c-5,0-9.1,6.1-9.1,13.7v45.9l20.5-2.2v-43.7C287.2,293.2,283.1,287,278.1,287z"/>
		<path class="st2" d="M283,278.5h-2.3c-7.7,0-14.1,9.5-14.1,21.1v47l0,0v-45.9c0-7.5,4.1-13.7,9.1-13.7h2.3c5,0,9.1,6.1,9.1,13.7
			v43.7l9.9-1.1v-43.7C297.1,288,290.8,278.5,283,278.5z"/>
		<path class="st4" d="M240.3,302c0-7.5-4.1-13.7-9.1-13.7h-2.3c-5,0-9.1,6.1-9.1,13.7v45.9h20.5L240.3,302L240.3,302z"/>
		<polyline class="st5" points="192.4,242.7 262,242.7 303.6,242.7 		"/>
		<polyline class="st5" points="192.4,250.2 262,250.2 303.6,250.2 		"/>
		<polyline class="st5" points="192.4,257.6 262,257.6 303.6,257.6 		"/>
		<polyline class="st5" points="192.4,265 262,265 303.6,265 		"/>
	</g>
	<g>
		<path class="st3" d="M589.2,379H473.6v72.6h8.6v-59.8c0-1.4,1.1-2.5,2.5-2.5h5.2c1.4,0,2.5,1.1,2.5,2.5v59.8h7.3v-59.8
			c0-1.4,1.1-2.5,2.5-2.5h5.2c1.4,0,2.5,1.1,2.5,2.5v59.8h7.3v-59.8c0-1.4,1.1-2.5,2.5-2.5h5.2c1.4,0,2.5,1.1,2.5,2.5v59.8h7.3
			v-59.8c0-1.4,1.1-2.5,2.5-2.5h5.2c1.4,0,2.5,1.1,2.5,2.5v59.8h7.3v-59.8c0-1.4,1.1-2.5,2.5-2.5h5.2c1.4,0,2.5,1.1,2.5,2.5v59.8
			h7.3v-59.8c0-1.4,1.1-2.5,2.5-2.5h5.2c1.4,0,2.5,1.1,2.5,2.5v59.8h8.5V379H589.2z"/>
		<path class="st4" d="M577.1,389.2h-5.2c-1.4,0-2.5,1.1-2.5,2.5v59.8h10.3v-59.8C579.7,390.3,578.5,389.2,577.1,389.2z"/>
	</g>
	<g>
		<polygon class="st6" points="381.3,281.3 353.3,281.3 367.3,241.6 381.3,201.8 395.2,241.6 409.2,281.3 		"/>
		<polygon class="st6" points="381.3,288.1 353.3,288.1 367.3,248.4 381.3,208.7 395.2,248.4 409.2,288.1 		"/>
		<polygon class="st6" points="381.3,295 353.3,295 367.3,255.3 381.3,215.6 395.2,255.3 409.2,295 		"/>
	</g>
	<rect x="106.4" y="312.4" class="st7" width="48.1" height="135.2"/>
	<rect x="145.4" y="322.5" class="st7" width="117.5" height="125.1"/>
	<rect x="262.6" y="286.7" class="st8" width="117.5" height="160.9"/>
	<polygon class="st9" points="474.8,447.6 380.1,447.6 380.1,286.7 474.8,307.9 	"/>
	<g>
		<path class="st10" d="M161.7,447.6h-2.3c-2.2,0-4-1.8-4-4V337.5c0-2.2,1.8-4,4-4h2.3c2.2,0,4,1.8,4,4v106.1
			C165.7,445.8,163.9,447.6,161.7,447.6z"/>
		<path class="st10" d="M179.4,447.6H177c-2.2,0-4-1.8-4-4V337.5c0-2.2,1.8-4,4-4h2.3c2.2,0,4,1.8,4,4v106.1
			C183.3,445.8,181.6,447.6,179.4,447.6z"/>
		<path class="st10" d="M197,447.6h-2.3c-2.2,0-4-1.8-4-4V337.5c0-2.2,1.8-4,4-4h2.3c2.2,0,4,1.8,4,4v106.1
			C201,445.8,199.2,447.6,197,447.6z"/>
		<path class="st10" d="M214.6,447.6h-2.3c-2.2,0-4-1.8-4-4V337.5c0-2.2,1.8-4,4-4h2.3c2.2,0,4,1.8,4,4v106.1
			C218.6,445.8,216.8,447.6,214.6,447.6z"/>
		<path class="st10" d="M232.2,447.6h-2.3c-2.2,0-4-1.8-4-4V337.5c0-2.2,1.8-4,4-4h2.3c2.2,0,4,1.8,4,4v106.1
			C236.2,445.8,234.4,447.6,232.2,447.6z"/>
		<path class="st10" d="M249.9,447.6h-2.3c-2.2,0-4-1.8-4-4V337.5c0-2.2,1.8-4,4-4h2.3c2.2,0,4,1.8,4,4v106.1
			C253.9,445.8,252.1,447.6,249.9,447.6z"/>
	</g>
	<g>
		<path class="st10" d="M277.1,441.6h-2.3c-2.2,0-4-1.8-4-4V302.5c0-2.2,1.8-4,4-4h2.3c2.2,0,4,1.8,4,4v135.1
			C281.1,439.9,279.3,441.6,277.1,441.6z"/>
		<path class="st10" d="M294.7,441.6h-2.3c-2.2,0-4-1.8-4-4V302.5c0-2.2,1.8-4,4-4h2.3c2.2,0,4,1.8,4,4v135.1
			C298.7,439.9,296.9,441.6,294.7,441.6z"/>
		<path class="st10" d="M312.4,441.6h-2.3c-2.2,0-4-1.8-4-4V302.5c0-2.2,1.8-4,4-4h2.3c2.2,0,4,1.8,4,4v135.1
			C316.4,439.9,314.6,441.6,312.4,441.6z"/>
		<path class="st10" d="M330,441.6h-2.3c-2.2,0-4-1.8-4-4V302.5c0-2.2,1.8-4,4-4h2.3c2.2,0,4,1.8,4,4v135.1
			C334,439.9,332.2,441.6,330,441.6z"/>
		<path class="st10" d="M347.6,441.6h-2.3c-2.2,0-4-1.8-4-4V302.5c0-2.2,1.8-4,4-4h2.3c2.2,0,4,1.8,4,4v135.1
			C351.6,439.9,349.8,441.6,347.6,441.6z"/>
		<path class="st10" d="M365.3,441.6H363c-2.2,0-4-1.8-4-4V302.5c0-2.2,1.8-4,4-4h2.3c2.2,0,4,1.8,4,4v135.1
			C369.2,439.9,367.4,441.6,365.3,441.6z"/>
	</g>
	<g>
		<line class="st11" x1="110.4" y1="312.4" x2="110.4" y2="447.6"/>
		<line class="st11" x1="114.9" y1="312.4" x2="114.9" y2="447.6"/>
		<line class="st11" x1="119.5" y1="312.4" x2="119.5" y2="447.6"/>
		<line class="st11" x1="124" y1="312.4" x2="124" y2="447.6"/>
		<line class="st11" x1="128.5" y1="312.4" x2="128.5" y2="447.6"/>
		<line class="st11" x1="133.1" y1="312.4" x2="133.1" y2="447.6"/>
		<line class="st11" x1="137.6" y1="312.4" x2="137.6" y2="447.6"/>
		<line class="st11" x1="142.2" y1="312.4" x2="142.2" y2="447.6"/>
		<line class="st11" x1="146.7" y1="312.4" x2="146.7" y2="447.6"/>
		<line class="st11" x1="151.2" y1="312.4" x2="151.2" y2="447.6"/>
	</g>
	<rect x="309.3" y="431.1" class="st12" width="6.9" height="10.6"/>
	<rect x="321.5" y="431.1" class="st12" width="6.9" height="10.6"/>
	<g>
		<rect x="88.4" y="430.3" class="st13" width="5.9" height="14.9"/>
		<g>
			<polygon class="st6" points="91.7,417.4 63.8,417.4 77.7,377.6 91.7,337.9 105.6,377.6 119.6,417.4 			"/>
			<polygon class="st6" points="91.7,424.2 63.8,424.2 77.7,384.5 91.7,344.8 105.6,384.5 119.6,424.2 			"/>
			<polygon class="st6" points="91.7,431.1 63.8,431.1 77.7,391.4 91.7,351.7 105.6,391.4 119.6,431.1 			"/>
		</g>
	</g>
	<path class="st4" d="M490,388.8h-5.2c-1.4,0-2.5,1.1-2.5,2.5v59.8h10.3v-59.8C492.5,389.9,491.4,388.8,490,388.8z"/>
	<path class="st4" d="M507.6,388.8h-5.2c-1.4,0-2.5,1.1-2.5,2.5v59.8h10.3v-59.8C510.2,389.9,509,388.8,507.6,388.8z"/>
	<path class="st4" d="M524.6,388.8h-5.2c-1.4,0-2.5,1.1-2.5,2.5v59.8h10.3v-59.8C527.2,389.9,526,388.8,524.6,388.8z"/>
	<path class="st4" d="M542.2,388.8H537c-1.4,0-2.5,1.1-2.5,2.5v59.8h10.3v-59.8C544.8,389.9,543.6,388.8,542.2,388.8z"/>
	<path class="st4" d="M559.8,388.8h-5.2c-1.4,0-2.5,1.1-2.5,2.5v59.8h10.3v-59.8C562.4,389.9,561.2,388.8,559.8,388.8z"/>
	<path class="st14" d="M79.3,451.5c0,0,5.8-16.1,33.1-11.7s39.4,1.3,52.8-2.2s19.2-3.7,32,1s17.3,14.2,58.9,4.7
		c41.6-9.6,61.3-17.4,87.3-10c26,7.4,58-6.1,90,6.5c32,12.7,81.5-9.6,106.6,11.7H79.3z"/>
	<path class="st15" d="M278.8,375.3c0,0-2.8-1.9-1.4-3.5s8-5.5,9.4-7c1.3-1.5,7.9-9.9,10.5-9.9c2.6,0.1,3.1,1.8,0.6,4.5
		c-2.5,2.8-5.7,6.5-5.9,8.4C291.6,369.5,286.5,379,278.8,375.3z"/>
	<path class="st16" d="M264.6,346.7l-20.6,7c-10.1,3.5-21.1-1.9-24.6-12l-5.6-16.3c-3.5-10.1,1.9-21.1,12-24.6l20.6-7L264.6,346.7z"
		/>
	<path class="st17" d="M264.6,346.7l-36.1,12.4l-4.8-26.2c-1.8-9.7,3.8-19.2,13.1-22.4l13.9-4.7L264.6,346.7z"/>
	<path class="st18" d="M344.4,400.5c0.5-2.6-1.1-5.8-1.1-5.8l-3.7,6.1C339.6,400.7,343.8,403.1,344.4,400.5z"/>
	<path class="st19" d="M360.2,392.5c-0.5-0.3-1.1-0.3-1.6,0c-1.3,0.6-3.5,2.2-6.8,2.2c-1.9,0-8,1.1-8,1.1l0,0
		c-0.1,0.1-0.4,0.6-0.8,3.7c-0.2,1.6-3.5,1.2-3.5,1.2s-0.1,0.5,0.1,1.2c0.2,0.5,0.5,1.1,1.1,1.6c0.9,0.7,1.9,2.7,2.5,4.1
		c0.4,0.8,0.6,1.5,0.6,1.5s0.4,0.6,2.5-0.9l2.2-2c0.6-0.8,1-1.5,1.7-2.3c1-1.2,2-1.2,2.2-1.2l0,0l9.4-8.6
		C361.9,393.5,360.9,392.9,360.2,392.5z"/>
	<path class="st20" d="M289.6,365.4c9.6,3.5,32.6-1.2,32.7,0.3c0.4,10.3,17.3,35.1,17.3,35.1s1.5-0.4,2.5-1.2
		c1.6-1.4,2.7-3.4,2.7-3.4c-5.4-18.1-8.3-40.6-11.9-42.9c-9.2-5.7-44.2-11.2-44.2-11.2l-17.5,10.1l-4.5,3.9
		C266.6,356.1,276.5,360.7,289.6,365.4z"/>
	<g>
		
			<rect x="320.7" y="347.9" transform="matrix(0.4953 -0.8687 0.8687 0.4953 -171.8395 474.8303)" class="st21" width="4" height="74.8"/>
	</g>
	<path class="st21" d="M338.3,323.6l-0.3-0.9l-0.2,0.8l0,0l0,0l-26,109.7c-0.5,2.2,2,3.8,3.8,2.5L353,407l-2.5-3.2l-33.8,26
		l23.9-90.7l11.5,61.4l4-0.7L344.8,324L338.3,323.6z"/>
	<g>
		<path class="st15" d="M351.5,330.6c-8.3-4.1-21.6-10.4-21.5-10.3l1-3.9c0.3,0.1,0.5,0.1,22.3,10.9L351.5,330.6z"/>
	</g>
	<g>
		<path class="st15" d="M309.9,384.2c-0.3,0.5-0.8,0.9-1.4,1l0,0c-20.8,4.2-36.5,24.2-40.8,30.3l0,0c-0.2,0.3-0.7,0.4-1,0.1l-1-1
			c-0.7-0.8-0.8-2-0.1-2.9c2.5-3.1,8.4-10.2,12.2-13.7c0.1-0.1,0.2-0.2,0.3-0.3c8.5-7.8,17.2-13,25.9-15.5c1.8-0.5,3.3-1.7,4.2-3.4
			l1.1-2.1c0.6-1.2,2.1-1.6,3.3-1l0,0c0.8,0.4,1.1,1.4,0.7,2.1L309.9,384.2z"/>
	</g>
	<path class="st18" d="M365.5,390.2c0,0,3.2,2,4.6,0.4s-0.4-5.2-0.4-5.2L365.5,390.2z"/>
	<g>
		<path class="st19" d="M372.4,397.7l2.2-2c0.6-0.8,1-1.5,1.7-2.3c1-1.2,2-1.2,2.2-1.2l0,0l9.4-8.6c-0.1-0.6-1-1.1-1.8-1.5
			c-0.5-0.3-1.1-0.3-1.6,0c-1.3,0.6-3.5,2.2-6.8,2.2c-1.9,0-8,1.1-8,1.1l0,0c-0.1,0.1-0.4,0.6-0.8,3.7c-0.2,1.6-3.5,1.2-3.5,1.2
			s-0.1,0.5,0.1,1.2c0.2,0.5,0.5,1.1,1.1,1.6c0.9,0.7,1.9,2.7,2.5,4.1c0.4,0.8,0.6,1.5,0.6,1.5S370.3,399.2,372.4,397.7z"/>
	</g>
	<path class="st22" d="M264.1,352c0,0,5.8,18,18.1,17.3c12.3-0.7,40.4-11.4,41.9-10.4s22.2,20.7,41.5,31.4c0,0,2.4-0.9,4.2-4.9
		c1-2.2-33.4-44.1-39.8-45.3c-6.4-1.2-32.6,2.6-32.6,2.6L264.1,352z"/>
	<path class="st23" d="M243.8,292.3c0,0,13.3,0.3,18.7-4.6c0,0-2.5-1.3-5.8-1.5c-0.3-1-0.5-1.9-0.8-2.7c-0.9-2.9-1.6-4.4-1.6-4.4
		l-9.2-2.3l-2.1-0.5c0.6,1.3,1.1,2.5,1.4,3.6c0,0.1,0.1,0.2,0.1,0.3C246.5,287.2,243.8,292.3,243.8,292.3z"/>
	<path class="st23" d="M326.1,312.4c0,0-22.1-3.7-24.1-4S273.3,297,273.3,297l-14.8,11.4c0,0,36.7,10.4,41.7,11.1
		c8.2,1.2,24.5-3,24.5-3c0.9,1.4,3.1,1.8,5.1,0.9c2.1-0.9,1.5-0.4,3-1s0.3-2.6,0.3-2.6C330.1,309.1,326.1,312.4,326.1,312.4z"/>
	<path class="st24" d="M264.1,352c0.3,0.7,2.1,0.8,2.8,0.8c3.3-0.1,6.4-0.3,9.5-0.8c2.1-0.4,4.2-0.9,6.3-1.7
		c6.1-2.1,12.3-6.6,14.7-7.7c0.2-0.1,0.4-0.3,0.5-0.6c0.1-0.2-3.1-7.4-7.4-16.2c-0.2-0.3-0.3-0.7-0.5-1.1l-0.1-0.1
		c-1.7-3.5-3.5-7.1-5.4-10.7c-4.1-7.9-8.3-15.3-11.4-19.1c-3.6-4.5-8.1-6.4-11.8-7.7l-3.1-0.9c-2,1.4-4.3,2.4-7.1,2.3
		c-3.1-0.1-6.4-0.1-6.7,0.4c-3.4,6.3-0.6,18.8,5.5,31.7c0.2,0.4,0.4,0.8,0.6,1.2c0.6,1.3,1.3,2.7,2,4c5,9.3,8.3,17.8,10.2,22.8
		C263.3,350.1,263.8,351.2,264.1,352z"/>
	<path class="st25" d="M264.1,352c0.3,0.7,2.1,0.8,2.8,0.8c3.3-0.1,6.4-0.3,9.5-0.8c-3.8-27.7-23.7-47-23.7-47l-2.1,16.9
		c0.6,1.3,1.3,2.7,2,4c5,9.3,8.3,17.8,10.2,22.8C263.3,350.1,263.8,351.2,264.1,352z"/>
	<path class="st26" d="M244.4,280.2C244.4,280.2,244.5,280.2,244.4,280.2c0.9,0.6,6,4.1,11.4,3.3c-0.9-2.9-1.6-4.4-1.6-4.4l-9.2-2.3
		c-0.4,1.4-0.6,2.7-0.6,3.1C244.4,280.1,244.4,280.2,244.4,280.2z"/>
	<path class="st23" d="M256.6,277.2c0,0-8.3,8.1-13.2,2.9c-5-5.2-9.4-7.7-4.3-13.1c5.1-5.4,8-4.4,10.1-3
		C251.3,265.3,258.7,275,256.6,277.2z"/>
	<path class="st27" d="M243.7,280.4c0,0-5.3-8,2.4-15.2c5.2-4.9-1.7-7.4-2.9-7.7c0,0-3.9,4-7.7,8.2
		C227.3,274.6,241.9,280,243.7,280.4z"/>
	<path class="st23" d="M319.2,319.8c0,0-22.1-3.7-24.1-4s-28.7-11.4-28.7-11.4l-7.7,4.6l-3.6,7.8c0,0,33.3,9.4,38.3,10.1
		c8.2,1.2,24.5-3,24.5-3c0.9,1.4,3.1,1.8,5.1,0.9c2.1-0.9,1.5-0.4,3-1s0.3-2.6,0.3-2.6C323.1,316.5,319.2,319.8,319.2,319.8z"/>
	<path class="st21" d="M267.4,303.5c0,0-10.5,7.2-12.3,14.1c0,0-6.3-4.9-10-10.5c-2-3.1-1.1-7.3,2-9.2c2.1-1.3,4.6-2.4,6.8-1.7
		C258.7,297.6,267.4,303.5,267.4,303.5z"/>
	<g>
		<path class="st15" d="M339.8,463.4c-15.7,14.5-40.3,13.4-54.8-2.3c-14.5-15.7-13.4-40.3,2.3-54.8c15.7-14.5,40.3-13.4,54.8,2.3
			c4.6,5,7.9,11.2,9.3,17.9c1.4,6.5,1.2,13.3-0.8,19.7C348.6,452.8,344.9,458.8,339.8,463.4z M290.9,410.3
			c-13.6,12.5-14.5,33.6-2,47.2s33.6,14.5,47.2,2c4.4-4,7.6-9.1,9.3-14.8c1.7-5.5,1.9-11.4,0.7-17c-1.3-5.7-4-11.1-8-15.4
			C325.7,398.7,304.5,397.8,290.9,410.3z"/>
	</g>
	<g>
		<path class="st15" d="M431.2,379.4c-15.7,14.5-40.3,13.4-54.8-2.3c-14.5-15.7-13.4-40.3,2.3-54.8c15.7-14.5,40.3-13.4,54.8,2.3
			c4.6,5,7.9,11.2,9.3,17.9c1.4,6.5,1.2,13.3-0.8,19.7C440.1,368.8,436.3,374.7,431.2,379.4z M382.4,326.3
			c-13.6,12.5-14.5,33.6-2,47.2s33.6,14.5,47.2,2c4.4-4,7.6-9.1,9.3-14.8c1.7-5.5,1.9-11.4,0.7-17c-1.3-5.7-4-11.1-8-15.4
			C417.1,314.7,395.9,313.8,382.4,326.3z"/>
	</g>
	<g>
		<path class="st15" d="M402.5,351.7l-51-21.1l1.4-3c0.9-1.9,3.3-2.8,5.2-1.8l46,22.2c1,0.5,1.5,1.7,1,2.8l0,0
			C404.7,351.7,403.5,352.1,402.5,351.7z"/>
	</g>
	<path class="st15" d="M333.1,310.9c-1.1,1-1.4,2.6-0.8,3.9l-7.4,6.1c-1.2-0.5-2.7-0.3-3.7,0.6c-1.4,1.3-1.5,3.5-0.2,4.9
		s3.5,1.5,4.9,0.2c0.7-0.6,1-1.4,1.1-2.2l9.2-7.5c0.6-0.1,1.2-0.4,1.7-0.8c1.4-1.3,1.5-3.5,0.2-4.9
		C336.7,309.7,334.5,309.6,333.1,310.9z"/>
	<g>
		<path class="st15" d="M375.3,394.3l-6.4,5.9c-0.8,0.7-0.8,1.9-0.1,2.6l0,0c0.7,0.8,1.9,0.8,2.6,0.1l6.4-5.9
			c0.8-0.7,0.8-1.9,0.1-2.6l0,0C377.3,393.7,376.1,393.6,375.3,394.3z"/>
		<g>
			
				<rect x="353.9" y="399.8" transform="matrix(0.9506 -0.3104 0.3104 0.9506 -106.3811 132.6617)" class="st15" width="19.5" height="1.6"/>
		</g>
		<path class="st15" d="M347.9,410.6c-3.8-4.1-3.5-10.5,0.6-14.3s10.5-3.5,14.3,0.6s3.5,10.5-0.6,14.3
			C358,415,351.7,414.7,347.9,410.6z"/>
	</g>
	<path class="st25" d="M235.8,259c-6.7,5.1-6.2,19.3,1.2,22.4l13.1-20C250.1,261.5,242.5,253.9,235.8,259z"/>
	<path class="st16" d="M242,295.3l1.1,3.3c0,0,14.7-7.2,25.3,6.7l2.7,1.1C271.2,306.4,258,286.7,242,295.3z"/>
	<path class="st16" d="M273,321.8c0,0-4.8,17.7-12.4,21.5l1.5,3.9c0,0,10.8-11.7,12.1-25L273,321.8z"/>
	<g>
		<ellipse class="st28" cx="128.3" cy="147.5" rx="6.3" ry="5.7"/>
		<path class="st28" d="M110.4,182.3c0,0,17.2-14.2,16.4-32.2h4c0,0-4,16.5,18.4,32.9L110.4,182.3z"/>
		<ellipse class="st7" cx="129.7" cy="205.4" rx="33.5" ry="30.8"/>
		<rect x="108.8" y="228.6" class="st28" width="41.9" height="25.7"/>
	</g>
	<g>
		<ellipse class="st28" cx="473.3" cy="187" rx="6.3" ry="5.7"/>
		<path class="st28" d="M455.5,221.8c0,0,17.2-14.2,16.4-32.2h4c0,0-4,16.5,18.4,32.9L455.5,221.8z"/>
		<ellipse class="st7" cx="474.8" cy="244.9" rx="33.5" ry="30.8"/>
		<rect x="453.9" y="268" class="st28" width="41.9" height="25.7"/>
	</g>
	<g>
		<defs>
			<rect id="SVGID_1_" x="100.7" y="253.9" width="59.4" height="57.3"/>
		</defs>
		<clipPath id="SVGID_2_">
			<use xlink:href="#SVGID_1_"  style="overflow:visible;"/>
		</clipPath>
		<rect x="100.7" y="253.9" class="st29" width="59.4" height="57.3"/>
		<path class="st30" d="M142.9,279.1c-3.3-3.6-7.7-5.8-12.5-5.8l0,0c-4.8,0-9.2,2.2-12.5,5.8c-3,3.3-5.1,7.9-5.6,12.9
			c-0.1,0.8-0.1,1.6-0.1,2.3V308c0,0.8,0,1.6,0.1,2.3c0.3,3.3,1.3,6.4,2.8,9.1h30.4c1.5-2.7,2.5-5.8,2.8-9.1v-18.4
			C148,287,145.9,282.5,142.9,279.1z"/>
	</g>
</g>
</svg>
