<?xml version="1.0" encoding="utf-8"?>
<!-- Generator: Adobe Illustrator 25.2.0, SVG Export Plug-In . SVG Version: 6.00 Build 0)  -->
<svg version="1.1" id="Livello_1" xmlns="http://www.w3.org/2000/svg" xmlns:xlink="http://www.w3.org/1999/xlink" x="0px" y="0px"
	 viewBox="0 0 841.9 595.3" style="enable-background:new 0 0 841.9 595.3;" xml:space="preserve">
<style type="text/css">
	.st0{fill:#F4F0E2;}
	.st1{fill:#FDF6E0;}
	.st2{fill:#E8D5B9;}
	.st3{fill:#FFFBF6;}
	.st4{fill:#648F64;}
	.st5{fill:#BFD4C2;}
	.st6{fill:#F9EAC3;}
	.st7{fill:#FFFFFF;}
	.st8{fill:none;stroke:#FFFFFF;stroke-miterlimit:10;}
	.st9{fill:#F1E0B2;}
	.st10{fill:#DBE8D7;}
	.st11{fill:#BFD7BC;}
	.st12{fill:#FFFCF4;}
	.st13{fill:none;stroke:#FFFFFF;stroke-width:0.5;stroke-miterlimit:10;}
	.st14{fill:#D5E7F7;}
	.st15{fill:#E9C799;}
	.st16{fill:#B6D9BA;}
	.st17{fill:#669164;}
	.st18{fill:#EBBB57;}
	.st19{fill:#E79E43;}
	.st20{fill:#CF8E55;}
	.st21{fill:#8A6D5B;}
	.st22{fill:#DFB882;}
	.st23{fill:#ADD39B;}
	.st24{fill:#B4876E;}
	.st25{fill:#E4BF8C;}
	.st26{fill:#FFFFFD;}
	.st27{fill:#449373;}
	.st28{fill:#C0783D;}
	.st29{fill:#80695C;}
</style>
<path class="st0" d="M770.2,77.3c0,0-150.2-30-225.4,97s-102,123-197.5,144s-134.5,75-152.1,128s-12.1,61-12.1,61h587.1V77.3z"/>
<g>
	<path class="st1" d="M696.1,300.8c-85.2,17.8-35.3-178.9-151.4-95.4c-46.2,33.2-112.7-7-176.4,15c-58.5,20.2-44.1,86.3-38.4,108
		c11.4,43.7-45.5,26.3-78.5,45.1c-51.8,29.5-6.4,148.3,42.5,148.8c48.9,0.5,408.1-1,408.1-1s21.3-16.7,32.7-51.1
		C758.1,399.7,771.2,285.2,696.1,300.8z"/>
	<g>
		<path class="st2" d="M770.5,449.3H655v72.6h8.6V462c0-1.4,1.1-2.5,2.5-2.5h5.2c1.4,0,2.5,1.1,2.5,2.5v59.8h7.3V462
			c0-1.4,1.1-2.5,2.5-2.5h5.2c1.4,0,2.5,1.1,2.5,2.5v59.8h7.3V462c0-1.4,1.1-2.5,2.5-2.5h5.2c1.4,0,2.5,1.1,2.5,2.5v59.8h7.3V462
			c0-1.4,1.1-2.5,2.5-2.5h5.2c1.4,0,2.5,1.1,2.5,2.5v59.8h7.3V462c0-1.4,1.1-2.5,2.5-2.5h5.2c1.4,0,2.5,1.1,2.5,2.5v59.8h7.3V462
			c0-1.4,1.1-2.5,2.5-2.5h5.2c1.4,0,2.5,1.1,2.5,2.5v59.8h8.5V449.3z"/>
		<path class="st3" d="M759.5,459.5h-5.2c-1.4,0-2.5,1.1-2.5,2.5v59.8H762V462C762,460.6,760.9,459.5,759.5,459.5z"/>
	</g>
	<g>
		<polygon class="st4" points="631.3,367.5 603.4,367.5 617.4,327.8 631.3,288.1 645.3,327.8 659.3,367.5 		"/>
		<polygon class="st4" points="631.3,374.4 603.4,374.4 617.4,334.7 631.3,295 645.3,334.7 659.3,374.4 		"/>
		<polygon class="st4" points="631.3,381.3 603.4,381.3 617.4,341.6 631.3,301.8 645.3,341.6 659.3,381.3 		"/>
	</g>
	<ellipse class="st5" cx="684.1" cy="271.1" rx="6.3" ry="5.7"/>
	<path class="st5" d="M666.2,305.9c0,0,17.2-14.2,16.4-32.2h4c0,0-4,16.5,18.4,32.9L666.2,305.9z"/>
	<g>
		<polygon class="st2" points="491.9,388.7 444,392.9 444,302.9 491.9,303.3 		"/>
		<path class="st6" d="M443.9,302.9h-60.2v90h17v-37.4c0-9.2,6.1-16.8,13.6-16.8h2.2c7.5,0,13.6,7.6,13.6,16.8v37.4h13.8V302.9z"/>
		<path class="st2" d="M416.4,338.7h-2.2c-7.5,0-13.6,7.6-13.6,16.8v37.4h9.6v-36.5c0-6,4-10.9,8.8-10.9h2.2c4.9,0,8.8,4.9,8.8,10.9
			v36.5h0v-37.4C430,346.3,423.9,338.7,416.4,338.7z"/>
		<path class="st7" d="M430,356.4c0-6-4-10.9-8.8-10.9H419c-4.9,0-8.8,4.9-8.8,10.9v36.5H430V356.4z"/>
		<polyline class="st8" points="383.6,309.3 451.1,309.3 491.4,309.3 		"/>
		<polyline class="st8" points="383.6,315.2 451.1,315.2 491.4,315.2 		"/>
		<polyline class="st8" points="383.6,321.1 451.1,321.1 491.4,321.1 		"/>
		<polyline class="st8" points="383.6,327 451.1,327 491.4,327 		"/>
	</g>
	<rect x="287.8" y="382.7" class="st9" width="48.1" height="135.2"/>
	<rect x="326.8" y="392.8" class="st9" width="117.5" height="125.1"/>
	<rect x="444" y="357" class="st10" width="117.5" height="160.9"/>
	<polygon class="st5" points="656.2,517.9 561.5,517.9 561.5,357 656.2,378.2 	"/>
	<rect x="282.1" y="324.1" class="st9" width="59.4" height="57.3"/>
	<rect x="295.6" y="263.2" class="st9" width="32.4" height="20.8"/>
	<polygon class="st11" points="341.5,322.3 282.1,322.3 295.8,286.2 327.9,286.2 	"/>
	<polygon class="st11" points="311.8,229.4 292.1,261.1 331.5,261.1 	"/>
	<ellipse class="st7" cx="311.8" cy="352.9" rx="16.2" ry="15.1"/>
	<g>
		<path class="st3" d="M343.1,517.9h-2.3c-2.2,0-4-1.8-4-4V407.8c0-2.2,1.8-4,4-4h2.3c2.2,0,4,1.8,4,4v106.1
			C347.1,516.1,345.3,517.9,343.1,517.9z"/>
		<path class="st3" d="M360.7,517.9h-2.3c-2.2,0-4-1.8-4-4V407.8c0-2.2,1.8-4,4-4h2.3c2.2,0,4,1.8,4,4v106.1
			C364.7,516.1,362.9,517.9,360.7,517.9z"/>
		<path class="st3" d="M378.4,517.9h-2.3c-2.2,0-4-1.8-4-4V407.8c0-2.2,1.8-4,4-4h2.3c2.2,0,4,1.8,4,4v106.1
			C382.4,516.1,380.6,517.9,378.4,517.9z"/>
		<path class="st3" d="M396,517.9h-2.3c-2.2,0-4-1.8-4-4V407.8c0-2.2,1.8-4,4-4h2.3c2.2,0,4,1.8,4,4v106.1
			C400,516.1,398.2,517.9,396,517.9z"/>
		<path class="st3" d="M413.6,517.9h-2.3c-2.2,0-4-1.8-4-4V407.8c0-2.2,1.8-4,4-4h2.3c2.2,0,4,1.8,4,4v106.1
			C417.6,516.1,415.8,517.9,413.6,517.9z"/>
		<path class="st3" d="M431.2,517.9h-2.3c-2.2,0-4-1.8-4-4V407.8c0-2.2,1.8-4,4-4h2.3c2.2,0,4,1.8,4,4v106.1
			C435.2,516.1,433.4,517.9,431.2,517.9z"/>
	</g>
	<g>
		<rect x="452.5" y="370.8" class="st12" width="10.9" height="147.1"/>
		<rect x="470.6" y="370.8" class="st12" width="10.9" height="147.1"/>
		<rect x="488.8" y="370.8" class="st12" width="10.9" height="147.1"/>
		<rect x="507" y="370.8" class="st12" width="10.9" height="147.1"/>
		<rect x="525.1" y="370.8" class="st12" width="10.9" height="147.1"/>
		<rect x="543.3" y="370.8" class="st12" width="10.9" height="147.1"/>
	</g>
	<g>
		<line class="st13" x1="300.8" y1="263.5" x2="300.8" y2="284"/>
		<line class="st13" x1="305.7" y1="263.5" x2="305.7" y2="284"/>
		<line class="st13" x1="310.5" y1="263.5" x2="310.5" y2="284"/>
		<line class="st13" x1="315.4" y1="263.5" x2="315.4" y2="284"/>
		<line class="st13" x1="320.2" y1="263.5" x2="320.2" y2="284"/>
		<line class="st13" x1="325.1" y1="263.5" x2="325.1" y2="284"/>
	</g>
	<g>
		<line class="st13" x1="291.8" y1="382.7" x2="291.8" y2="517.9"/>
		<line class="st13" x1="296.3" y1="382.7" x2="296.3" y2="517.9"/>
		<line class="st13" x1="300.8" y1="382.7" x2="300.8" y2="517.9"/>
		<line class="st13" x1="305.4" y1="382.7" x2="305.4" y2="517.9"/>
		<line class="st13" x1="309.9" y1="382.7" x2="309.9" y2="517.9"/>
		<line class="st13" x1="314.5" y1="382.7" x2="314.5" y2="517.9"/>
		<line class="st13" x1="319" y1="382.7" x2="319" y2="517.9"/>
		<line class="st13" x1="323.5" y1="382.7" x2="323.5" y2="517.9"/>
		<line class="st13" x1="328.1" y1="382.7" x2="328.1" y2="517.9"/>
		<line class="st13" x1="332.6" y1="382.7" x2="332.6" y2="517.9"/>
	</g>
	<ellipse class="st9" cx="685.6" cy="329" rx="33.5" ry="30.8"/>
	<rect x="664.6" y="353.1" class="st5" width="41.9" height="25.7"/>
	<rect x="655" y="377.9" class="st9" width="61.3" height="70.9"/>
	<line class="st13" x1="659.4" y1="377.8" x2="659.4" y2="449.1"/>
	<line class="st13" x1="664.5" y1="377.8" x2="664.5" y2="449.1"/>
	<line class="st13" x1="669.7" y1="377.8" x2="669.7" y2="449.1"/>
	<line class="st13" x1="674.8" y1="377.8" x2="674.8" y2="449.1"/>
	<line class="st13" x1="680" y1="377.8" x2="680" y2="449.1"/>
	<line class="st13" x1="685.1" y1="377.8" x2="685.1" y2="449.1"/>
	<line class="st13" x1="690.3" y1="377.8" x2="690.3" y2="449.1"/>
	<line class="st13" x1="695.4" y1="377.8" x2="695.4" y2="449.1"/>
	<line class="st13" x1="700.6" y1="377.8" x2="700.6" y2="449.1"/>
	<line class="st13" x1="705.7" y1="377.8" x2="705.7" y2="449.1"/>
	<line class="st13" x1="710.9" y1="377.8" x2="710.9" y2="449.1"/>
	<rect x="490.7" y="501.4" class="st14" width="6.9" height="10.6"/>
	<rect x="502.9" y="501.4" class="st14" width="6.9" height="10.6"/>
	<g>
		<rect x="269.8" y="500.6" class="st15" width="5.9" height="14.9"/>
		<g>
			<polygon class="st4" points="273,487.6 245.1,487.6 259.1,447.9 273,408.2 287,447.9 301,487.6 			"/>
			<polygon class="st4" points="273,494.5 245.1,494.5 259.1,454.8 273,415.1 287,454.8 301,494.5 			"/>
			<polygon class="st4" points="273,501.4 245.1,501.4 259.1,461.7 273,422 287,461.7 301,501.4 			"/>
		</g>
	</g>
	<path class="st3" d="M671.4,459.1h-5.2c-1.4,0-2.5,1.1-2.5,2.5v59.8h10.3v-59.8C673.9,460.2,672.8,459.1,671.4,459.1z"/>
	<path class="st3" d="M689,459.1h-5.2c-1.4,0-2.5,1.1-2.5,2.5v59.8h10.3v-59.8C691.5,460.2,690.4,459.1,689,459.1z"/>
	<path class="st3" d="M706.6,459.1h-5.2c-1.4,0-2.5,1.1-2.5,2.5v59.8h10.3v-59.8C709.2,460.2,708,459.1,706.6,459.1z"/>
	<path class="st3" d="M724.3,459.1H719c-1.4,0-2.5,1.1-2.5,2.5v59.8h10.3v-59.8C726.8,460.2,725.6,459.1,724.3,459.1z"/>
	<path class="st3" d="M741.9,459.1h-5.2c-1.4,0-2.5,1.1-2.5,2.5v59.8h10.3v-59.8C744.4,460.2,743.3,459.1,741.9,459.1z"/>
	<path class="st16" d="M260.6,521.8c0,0,5.8-16.1,33.1-11.7c27.3,4.4,39.4,1.3,52.8-2.2c13.4-3.5,19.2-3.7,32,1
		c12.8,4.7,17.3,14.2,58.9,4.7s61.3-17.4,87.3-10c26,7.4,58-6.1,90,6.5c32,12.7,81.5-9.6,106.6,11.7H260.6z"/>
</g>
<g>
	<path class="st17" d="M460.1,445.6c0,0-2.8-1.9-1.4-3.5c1.4-1.6,8-5.5,9.4-7c1.3-1.5,7.9-9.9,10.5-9.9c2.6,0.1,3.1,1.8,0.6,4.5
		c-2.5,2.8-5.7,6.5-5.9,8.4C473,439.8,467.9,449.3,460.1,445.6z"/>
	<path class="st18" d="M446,417l-20.6,7c-10.1,3.5-21.1-1.9-24.6-12l-5.6-16.3c-3.5-10.1,1.9-21.1,12-24.6l20.6-7L446,417z"/>
	<path class="st19" d="M446,417l-36.1,12.4l-4.8-26.2c-1.8-9.7,3.8-19.2,13.1-22.4l13.9-4.7L446,417z"/>
	<path class="st20" d="M525.7,470.8c0.5-2.6-1.1-5.8-1.1-5.8l-3.7,6.1C520.9,471,525.2,473.4,525.7,470.8z"/>
	<path class="st21" d="M541.6,462.8c-0.5-0.3-1.1-0.3-1.6,0c-1.3,0.6-3.5,2.2-6.8,2.2c-1.9,0-8,1.1-8,1.1l0,0
		c-0.1,0.1-0.4,0.6-0.8,3.7c-0.2,1.6-3.5,1.2-3.5,1.2s-0.1,0.5,0.1,1.2c0.2,0.5,0.5,1.1,1.1,1.6c0.9,0.7,1.9,2.7,2.5,4.1
		c0.4,0.8,0.6,1.5,0.6,1.5s0.4,0.6,2.5-0.9l2.2-2c0.6-0.8,1-1.5,1.7-2.3c1-1.2,2-1.2,2.2-1.2c0,0,0,0,0,0l9.4-8.6
		C543.3,463.8,542.3,463.2,541.6,462.8z"/>
	<path class="st22" d="M471,435.7c9.6,3.5,32.6-1.2,32.7,0.3c0.4,10.3,17.3,35.1,17.3,35.1s1.5-0.4,2.5-1.2c1.6-1.4,2.7-3.4,2.7-3.4
		c-5.4-18.1-8.3-40.6-11.9-42.9c-9.2-5.7-44.2-11.2-44.2-11.2l-17.5,10.1l-4.5,3.9C448,426.4,457.8,431,471,435.7z"/>
	<g>
		
			<rect x="502.2" y="418.1" transform="matrix(0.4953 -0.8687 0.8687 0.4953 -141.2897 667.9434)" class="st23" width="4" height="74.8"/>
	</g>
	<path class="st23" d="M519.7,393.9l-0.3-0.9l-0.2,0.8l0,0l0,0l-26,109.7c-0.5,2.2,2,3.8,3.8,2.5l37.4-28.8l-2.5-3.2l-33.8,26
		l23.9-90.7l11.5,61.4l4-0.7l-11.4-75.7L519.7,393.9z"/>
	<g>
		<path class="st17" d="M532.9,400.9c-8.3-4.1-21.6-10.4-21.5-10.3l1-3.9c0.3,0.1,0.5,0.1,22.3,10.9L532.9,400.9z"/>
	</g>
	<g>
		<path class="st17" d="M491.3,454.5c-0.3,0.5-0.8,0.9-1.4,1l0,0c-20.8,4.2-36.5,24.2-40.8,30.3l0,0c-0.2,0.3-0.7,0.4-1,0.1l-1-1
			c-0.7-0.8-0.8-2-0.1-2.9c2.5-3.1,8.4-10.2,12.2-13.7c0.1-0.1,0.2-0.2,0.3-0.3c8.5-7.8,17.2-13,25.9-15.5c1.8-0.5,3.3-1.7,4.2-3.4
			l1.1-2.1c0.6-1.2,2.1-1.6,3.3-1l0,0c0.8,0.4,1.1,1.4,0.7,2.1L491.3,454.5z"/>
	</g>
	<path class="st20" d="M546.9,460.5c0,0,3.2,2,4.6,0.4c1.4-1.6-0.4-5.2-0.4-5.2L546.9,460.5z"/>
	<g>
		<path class="st21" d="M553.8,468l2.2-2c0.6-0.8,1-1.5,1.7-2.3c1-1.2,2-1.2,2.2-1.2c0,0,0,0,0,0l9.4-8.6c-0.1-0.6-1-1.1-1.8-1.5
			c-0.5-0.3-1.1-0.3-1.6,0c-1.3,0.6-3.5,2.2-6.8,2.2c-1.9,0-8,1.1-8,1.1l0,0c-0.1,0.1-0.4,0.6-0.8,3.7c-0.2,1.6-3.5,1.2-3.5,1.2
			s-0.1,0.5,0.1,1.2c0.2,0.5,0.5,1.1,1.1,1.6c0.9,0.7,1.9,2.7,2.5,4.1c0.4,0.8,0.6,1.5,0.6,1.5S551.7,469.5,553.8,468z"/>
	</g>
	<path class="st24" d="M445.5,422.3c0,0,5.8,18,18.1,17.3c12.3-0.7,40.4-11.4,41.9-10.4c1.5,1,22.2,20.7,41.5,31.4
		c0,0,2.4-0.9,4.2-4.9c1-2.2-33.4-44.1-39.8-45.3c-6.4-1.2-32.6,2.6-32.6,2.6L445.5,422.3z"/>
	<path class="st25" d="M425.1,362.6c0,0,13.3,0.3,18.7-4.6c0,0-2.5-1.3-5.8-1.5c-0.3-1-0.5-1.9-0.8-2.7c-0.9-2.9-1.6-4.4-1.6-4.4
		l-9.2-2.3l-2.1-0.5c0.6,1.3,1.1,2.5,1.4,3.6c0,0.1,0.1,0.2,0.1,0.3C427.8,357.5,425.1,362.6,425.1,362.6z"/>
	<path class="st25" d="M507.5,382.7c0,0-22.1-3.7-24.1-4c-2-0.3-28.7-11.4-28.7-11.4l-14.8,11.4c0,0,36.7,10.4,41.7,11.1
		c8.2,1.2,24.5-3,24.5-3c0.9,1.4,3.1,1.8,5.1,0.9c2.1-0.9,1.5-0.4,3-1c1.5-0.6,0.3-2.6,0.3-2.6C511.5,379.4,507.5,382.7,507.5,382.7
		z"/>
	<path class="st26" d="M445.5,422.3c0.3,0.7,2.1,0.8,2.8,0.8c3.3-0.1,6.4-0.3,9.5-0.8c2.1-0.4,4.2-0.9,6.3-1.7
		c6.1-2.1,12.3-6.6,14.7-7.7c0.2-0.1,0.4-0.3,0.5-0.6c0.1-0.2-3.1-7.4-7.4-16.2c-0.2-0.3-0.3-0.7-0.5-1.1l-0.1-0.1
		c-1.7-3.5-3.5-7.1-5.4-10.7c-4.1-7.9-8.3-15.3-11.4-19.1c-3.6-4.5-8.1-6.4-11.8-7.7l-3.1-0.9c-2,1.4-4.3,2.4-7.1,2.3
		c-3.1-0.1-6.4-0.1-6.7,0.4c-3.4,6.3-0.6,18.8,5.5,31.7c0.2,0.4,0.4,0.8,0.6,1.2c0.6,1.3,1.3,2.7,2,4c5,9.3,8.3,17.8,10.2,22.8
		C444.7,420.4,445.1,421.5,445.5,422.3z"/>
	<path class="st27" d="M445.5,422.3c0.3,0.7,2.1,0.8,2.8,0.8c3.3-0.1,6.4-0.3,9.5-0.8c-3.8-27.7-23.7-47-23.7-47l-2.1,16.9
		c0.6,1.3,1.3,2.7,2,4c5,9.3,8.3,17.8,10.2,22.8C444.7,420.4,445.1,421.5,445.5,422.3z"/>
	<path class="st28" d="M425.8,350.5C425.8,350.5,425.8,350.5,425.8,350.5c0.9,0.6,6,4.1,11.4,3.3c-0.9-2.9-1.6-4.4-1.6-4.4l-9.2-2.3
		c-0.4,1.4-0.6,2.7-0.6,3.1C425.8,350.4,425.8,350.5,425.8,350.5z"/>
	<path class="st25" d="M438,347.5c0,0-8.3,8.1-13.2,2.9c-5-5.2-9.4-7.7-4.3-13.1c5.1-5.4,8-4.4,10.1-3
		C432.6,335.6,440,345.3,438,347.5z"/>
	<path class="st29" d="M425.1,350.7c0,0-5.3-8,2.4-15.2c5.2-4.9-1.7-7.4-2.9-7.7c0,0-3.9,4-7.7,8.2
		C408.7,344.9,423.3,350.3,425.1,350.7z"/>
	<path class="st25" d="M500.5,390.1c0,0-22.1-3.7-24.1-4c-2-0.3-28.7-11.4-28.7-11.4l-7.7,4.6l-3.6,7.8c0,0,33.3,9.4,38.3,10.1
		c8.2,1.2,24.5-3,24.5-3c0.9,1.4,3.1,1.8,5.1,0.9c2.1-0.9,1.5-0.4,3-1s0.3-2.6,0.3-2.6C504.5,386.8,500.5,390.1,500.5,390.1z"/>
	<path class="st23" d="M448.8,373.8c0,0-10.5,7.2-12.3,14.1c0,0-6.3-4.9-10-10.5c-2-3.1-1.1-7.3,2-9.2c2.1-1.3,4.6-2.4,6.8-1.7
		C440,367.9,448.8,373.8,448.8,373.8z"/>
	<g>
		<path class="st17" d="M521.2,533.7c-15.7,14.5-40.3,13.4-54.8-2.3c-14.5-15.7-13.4-40.3,2.3-54.8c15.7-14.5,40.3-13.4,54.8,2.3
			c4.6,5,7.9,11.2,9.3,17.9c1.4,6.5,1.2,13.3-0.8,19.7C530,523.1,526.2,529.1,521.2,533.7z M472.3,480.6
			c-13.6,12.5-14.5,33.6-2,47.2c12.5,13.6,33.6,14.5,47.2,2c4.4-4,7.6-9.1,9.3-14.8c1.7-5.5,1.9-11.4,0.7-17c-1.3-5.7-4-11.1-8-15.4
			C507,469,485.9,468.1,472.3,480.6z"/>
	</g>
	<g>
		<path class="st17" d="M612.6,449.7c-15.7,14.5-40.3,13.4-54.8-2.3c-14.5-15.7-13.4-40.3,2.3-54.8c15.7-14.5,40.3-13.4,54.8,2.3
			c4.6,5,7.9,11.2,9.3,17.9c1.4,6.5,1.2,13.3-0.8,19.7C621.4,439.1,617.7,445,612.6,449.7z M563.8,396.5
			c-13.6,12.5-14.5,33.6-2,47.2c12.5,13.6,33.6,14.5,47.2,2c4.4-4,7.6-9.1,9.3-14.8c1.7-5.5,1.9-11.4,0.7-17c-1.3-5.7-4-11.1-8-15.4
			C598.5,385,577.3,384.1,563.8,396.5z"/>
	</g>
	<g>
		<path class="st17" d="M583.9,422l-51-21.1l1.4-3c0.9-1.9,3.3-2.8,5.2-1.8l46,22.2c1,0.5,1.5,1.7,1,2.8l0,0
			C586.1,422,584.9,422.4,583.9,422z"/>
	</g>
	<path class="st17" d="M514.5,381.2c-1.1,1-1.4,2.6-0.8,3.9l-7.4,6.1c-1.2-0.5-2.7-0.3-3.7,0.6c-1.4,1.3-1.5,3.5-0.2,4.9
		c1.3,1.4,3.5,1.5,4.9,0.2c0.7-0.6,1-1.4,1.1-2.2l9.2-7.5c0.6-0.1,1.2-0.4,1.7-0.8c1.4-1.3,1.5-3.5,0.2-4.9
		C518.1,380,515.9,379.9,514.5,381.2z"/>
	<g>
		<path class="st17" d="M556.7,464.6l-6.4,5.9c-0.8,0.7-0.8,1.9-0.1,2.6l0,0c0.7,0.8,1.9,0.8,2.6,0.1l6.4-5.9
			c0.8-0.7,0.8-1.9,0.1-2.6l0,0C558.6,464,557.5,463.9,556.7,464.6z"/>
		<g>
			
				<rect x="535.3" y="470.1" transform="matrix(0.9506 -0.3104 0.3104 0.9506 -119.2481 192.4622)" class="st17" width="19.5" height="1.6"/>
		</g>
		<path class="st17" d="M529.3,480.9c-3.8-4.1-3.5-10.5,0.6-14.3c4.1-3.8,10.5-3.5,14.3,0.6c3.8,4.1,3.5,10.5-0.6,14.3
			C539.4,485.3,533,485,529.3,480.9z"/>
	</g>
	<path class="st27" d="M417.2,329.3c-6.7,5.1-6.2,19.3,1.2,22.4l13.1-20C431.4,331.8,423.9,324.2,417.2,329.3z"/>
	<path class="st18" d="M423.4,365.6l1.1,3.3c0,0,14.7-7.2,25.3,6.7l2.7,1.1C452.6,376.7,439.4,357,423.4,365.6z"/>
	<path class="st18" d="M454.4,392.1c0,0-4.8,17.7-12.4,21.5l1.5,3.9c0,0,10.8-11.7,12.1-25L454.4,392.1z"/>
</g>
</svg>
