<?xml version="1.0" encoding="utf-8"?>
<!-- Generator: Adobe Illustrator 25.2.0, SVG Export Plug-In . SVG Version: 6.00 Build 0)  -->
<svg version="1.1" id="Livello_1" xmlns="http://www.w3.org/2000/svg" xmlns:xlink="http://www.w3.org/1999/xlink" x="0px" y="0px"
	 viewBox="0 0 13.5 146.9" style="enable-background:new 0 0 13.5 146.9;" xml:space="preserve">
<style type="text/css">
	.st0{fill:#449373;}
</style>
<g>
	<path class="st0" d="M7.7,11.3l0-1.8l-1-0.2l0,1.4l-1.6,0l0-1.8L3.2,8.5l0-1.7l1.9,0.5l0-0.7L3.2,6.2V4.5L5.1,5l0-1.2l1.6,0l0,1.6
		l1,0.2V4.3h1.5v1.6l2,0.5l0,1.7l-2-0.5v0.7l2,0.5l0,1.7l-2-0.5v1.4H7.7z M6.7,7.7l1,0.2V7.2L6.7,7V7.7z"/>
	<path class="st0" d="M5,11.9c0.4,0,0.7,0.1,1,0.3c0.3,0.2,0.5,0.5,0.7,0.9c0.2,0.4,0.3,0.8,0.3,1.3c0,0.2,0,0.4-0.1,0.6
		c0,0.2-0.1,0.4-0.2,0.5h0.2c0.3,0,0.5-0.1,0.6-0.2c0.1-0.2,0.2-0.4,0.2-0.8c0-0.3-0.1-0.6-0.2-0.9c-0.1-0.3-0.3-0.6-0.5-0.9
		l1.3-0.6c0.3,0.4,0.4,0.8,0.6,1.2c0.1,0.4,0.2,0.9,0.2,1.4c0,0.9-0.2,1.6-0.6,2.1c-0.4,0.5-1,0.8-1.8,0.8l-1.1,0
		c-0.2,0-0.3,0-0.4,0.1C5.1,17.8,5,17.9,5,18.1H3.2c0-0.2-0.1-0.3-0.1-0.5c0-0.2,0-0.3,0-0.4c0-0.4,0.1-0.7,0.2-0.9
		C3.5,16.1,3.7,16,3.9,16l0.2,0c-0.3-0.3-0.6-0.6-0.8-0.9s-0.3-0.7-0.3-1.1c0-0.4,0.1-0.7,0.2-1c0.2-0.3,0.4-0.6,0.7-0.7
		S4.6,11.9,5,11.9z M4.8,15.3C4.9,15.4,5,15.5,5,15.5c0.1,0.1,0.1,0.1,0.2,0.1h0.4c0-0.1,0.1-0.3,0.1-0.4c0-0.2,0-0.3,0-0.4
		c0-0.3-0.1-0.5-0.2-0.6c-0.1-0.2-0.3-0.3-0.5-0.3c-0.1,0-0.2,0-0.3,0.1c-0.1,0.1-0.1,0.1-0.2,0.2c0,0.1-0.1,0.2-0.1,0.4
		c0,0.1,0,0.3,0.1,0.4C4.7,15.1,4.8,15.2,4.8,15.3z"/>
	<path class="st0" d="M7.3,18.5c0.5,0,1,0.1,1.4,0.3c0.5,0.2,0.9,0.4,1.3,0.8s0.7,0.8,0.9,1.3s0.3,1.1,0.3,1.7c0,0.8-0.2,1.4-0.5,2
		c-0.3,0.6-0.7,1-1.3,1.3l-1.2-1.6c0.3-0.1,0.5-0.2,0.6-0.4s0.2-0.4,0.3-0.6c0.1-0.2,0.1-0.4,0.1-0.6c0-0.3-0.1-0.6-0.2-0.8
		c-0.1-0.2-0.3-0.4-0.5-0.6c-0.2-0.1-0.4-0.3-0.7-0.3c-0.2-0.1-0.5-0.1-0.7-0.1c-0.3,0-0.5,0-0.8,0.1c-0.3,0.1-0.5,0.2-0.7,0.4
		c-0.2,0.2-0.4,0.3-0.5,0.6c-0.1,0.2-0.2,0.5-0.2,0.8c0,0.2,0,0.4,0.1,0.6c0.1,0.2,0.2,0.4,0.3,0.6s0.3,0.3,0.6,0.4L5,25.8
		c-0.4-0.2-0.7-0.4-1-0.8s-0.5-0.8-0.6-1.2c-0.1-0.5-0.2-0.9-0.2-1.4c0-0.6,0.1-1.1,0.4-1.6c0.2-0.5,0.5-0.9,0.9-1.2
		c0.4-0.4,0.8-0.6,1.3-0.8S6.8,18.5,7.3,18.5z"/>
	<path class="st0" d="M5,26.1c0.4,0,0.7,0.1,1,0.3c0.3,0.2,0.5,0.5,0.7,0.9c0.2,0.4,0.3,0.8,0.3,1.3c0,0.2,0,0.4-0.1,0.6
		c0,0.2-0.1,0.4-0.2,0.5h0.2c0.3,0,0.5-0.1,0.6-0.2c0.1-0.2,0.2-0.4,0.2-0.8c0-0.3-0.1-0.6-0.2-0.9S7.3,27.3,7,27l1.3-0.6
		c0.3,0.4,0.4,0.8,0.6,1.2C9,28,9.1,28.5,9.1,29c0,0.9-0.2,1.6-0.6,2.1c-0.4,0.5-1,0.8-1.8,0.8l-1.1,0c-0.2,0-0.3,0-0.4,0.1
		C5.1,32,5,32.1,5,32.3H3.2c0-0.2-0.1-0.3-0.1-0.5c0-0.2,0-0.3,0-0.4c0-0.4,0.1-0.7,0.2-0.9c0.1-0.2,0.3-0.3,0.6-0.4l0.2,0
		c-0.3-0.3-0.6-0.6-0.8-0.9s-0.3-0.7-0.3-1.1c0-0.4,0.1-0.7,0.2-1c0.2-0.3,0.4-0.6,0.7-0.7S4.6,26.1,5,26.1z M4.8,29.5
		C4.9,29.6,5,29.7,5,29.7c0.1,0.1,0.1,0.1,0.2,0.1h0.4c0-0.1,0.1-0.3,0.1-0.4c0-0.2,0-0.3,0-0.4c0-0.3-0.1-0.5-0.2-0.6
		c-0.1-0.2-0.3-0.3-0.5-0.3c-0.1,0-0.2,0-0.3,0.1c-0.1,0.1-0.1,0.1-0.2,0.2c0,0.1-0.1,0.2-0.1,0.4c0,0.1,0,0.3,0.1,0.4
		C4.7,29.3,4.8,29.4,4.8,29.5z"/>
	<path class="st0" d="M3.1,35.4c0-0.5,0.1-1,0.3-1.5c0.2-0.5,0.4-0.9,0.7-1.2l1.3,0.7c-0.2,0.4-0.4,0.7-0.6,1
		c-0.1,0.3-0.2,0.6-0.2,0.9c0,0.2,0,0.3,0.1,0.3c0,0.1,0.1,0.1,0.2,0.1c0.1,0,0.1,0,0.2-0.1c0-0.1,0.1-0.1,0.1-0.2
		c0-0.1,0.1-0.3,0.1-0.4c0.2-0.5,0.3-0.8,0.4-1.1c0.1-0.3,0.3-0.5,0.5-0.7c0.2-0.2,0.5-0.2,0.8-0.2c0.4,0,0.7,0.1,1,0.3
		c0.3,0.2,0.5,0.5,0.7,0.9c0.2,0.4,0.3,0.8,0.3,1.3c0,0.4-0.1,0.8-0.2,1.2c-0.1,0.4-0.3,0.8-0.7,1.1L7,37c0.2-0.4,0.4-0.7,0.5-0.9
		c0.1-0.3,0.1-0.5,0.1-0.7c0-0.1,0-0.2,0-0.2c0-0.1-0.1-0.1-0.1-0.2c0,0-0.1-0.1-0.2-0.1s-0.1,0-0.2,0.1S7,35.1,7,35.2
		c0,0.1-0.1,0.3-0.1,0.4c-0.1,0.5-0.3,0.9-0.4,1.2c-0.1,0.3-0.3,0.6-0.5,0.7S5.4,37.8,5,37.8c-0.6,0-1.1-0.2-1.4-0.6
		S3.1,36.1,3.1,35.4z"/>
	<path class="st0" d="M5,38.3c0.4,0,0.7,0.1,1,0.3c0.3,0.2,0.5,0.5,0.7,0.9c0.2,0.4,0.3,0.8,0.3,1.3c0,0.2,0,0.4-0.1,0.6
		c0,0.2-0.1,0.4-0.2,0.5h0.2c0.3,0,0.5-0.1,0.6-0.2c0.1-0.2,0.2-0.4,0.2-0.8c0-0.3-0.1-0.6-0.2-0.9c-0.1-0.3-0.3-0.6-0.5-0.9
		l1.3-0.6c0.3,0.4,0.4,0.8,0.6,1.2c0.1,0.4,0.2,0.9,0.2,1.4c0,0.9-0.2,1.6-0.6,2.1c-0.4,0.5-1,0.8-1.8,0.8l-1.1,0
		c-0.2,0-0.3,0-0.4,0.1C5.1,44.2,5,44.3,5,44.4H3.2c0-0.2-0.1-0.3-0.1-0.5c0-0.2,0-0.3,0-0.4c0-0.4,0.1-0.7,0.2-0.9
		c0.1-0.2,0.3-0.3,0.6-0.4l0.2,0c-0.3-0.3-0.6-0.6-0.8-0.9s-0.3-0.7-0.3-1.1c0-0.4,0.1-0.7,0.2-1C3.5,39,3.7,38.7,4,38.5
		S4.6,38.3,5,38.3z M4.8,41.7C4.9,41.8,5,41.8,5,41.9c0.1,0.1,0.1,0.1,0.2,0.1h0.4c0-0.1,0.1-0.3,0.1-0.4c0-0.2,0-0.3,0-0.4
		c0-0.3-0.1-0.5-0.2-0.6c-0.1-0.2-0.3-0.3-0.5-0.3c-0.1,0-0.2,0-0.3,0.1c-0.1,0.1-0.1,0.1-0.2,0.2c0,0.1-0.1,0.2-0.1,0.4
		c0,0.1,0,0.3,0.1,0.4C4.7,41.5,4.8,41.6,4.8,41.7z"/>
	<path class="st0" d="M9.2,50.7v-2.3l-6,0l0-2.2l6,0l0-2.3h1.9l0,6.7H9.2z"/>
	<path class="st0" d="M5.2,50.8l3.8,0l0,2.1l-3.3,0c-0.2,0-0.4,0.1-0.6,0.2c-0.1,0.1-0.2,0.3-0.2,0.5c0,0.1,0,0.2,0,0.3
		C5,54,5,54.1,5.1,54.2c0.1,0.1,0.2,0.2,0.4,0.3l3.5,0v2.1l-3.5,0c-0.2,0-0.3,0-0.4,0.1C5.1,56.8,5,56.9,5,57.1H3.2
		c0-0.2-0.1-0.4-0.1-0.5s0-0.3,0-0.4c0-0.4,0.1-0.6,0.2-0.8c0.1-0.2,0.3-0.3,0.6-0.4l0.2,0c-0.4-0.3-0.6-0.6-0.8-1
		c-0.2-0.4-0.2-0.8-0.2-1.3c0-0.6,0.2-1,0.5-1.3S4.5,50.8,5.2,50.8z"/>
	<path class="st0" d="M5,57.6c0.4,0,0.7,0.1,1,0.3c0.3,0.2,0.5,0.5,0.7,0.9s0.3,0.8,0.3,1.3c0,0.2,0,0.4-0.1,0.6
		c0,0.2-0.1,0.4-0.2,0.5h0.2c0.3,0,0.5-0.1,0.6-0.2c0.1-0.2,0.2-0.4,0.2-0.8c0-0.3-0.1-0.6-0.2-0.9c-0.1-0.3-0.3-0.6-0.5-0.9
		l1.3-0.6c0.3,0.4,0.4,0.8,0.6,1.2C9,59.5,9.1,60,9.1,60.5c0,0.9-0.2,1.6-0.6,2.1c-0.4,0.5-1,0.8-1.8,0.8l-1.1,0
		c-0.2,0-0.3,0-0.4,0.1C5.1,63.5,5,63.7,5,63.8H3.2c0-0.2-0.1-0.3-0.1-0.5c0-0.2,0-0.3,0-0.4c0-0.4,0.1-0.7,0.2-0.9
		c0.1-0.2,0.3-0.3,0.6-0.4l0.2,0c-0.3-0.3-0.6-0.6-0.8-0.9S3.1,60,3.1,59.6c0-0.4,0.1-0.7,0.2-1c0.2-0.3,0.4-0.6,0.7-0.7
		S4.6,57.6,5,57.6z M4.8,61c0.1,0.1,0.1,0.1,0.2,0.2c0.1,0.1,0.1,0.1,0.2,0.1h0.4c0-0.1,0.1-0.3,0.1-0.4c0-0.2,0-0.3,0-0.4
		c0-0.3-0.1-0.5-0.2-0.6c-0.1-0.2-0.3-0.3-0.5-0.3c-0.1,0-0.2,0-0.3,0.1c-0.1,0.1-0.1,0.1-0.2,0.2c0,0.1-0.1,0.2-0.1,0.4
		c0,0.1,0,0.3,0.1,0.4C4.7,60.8,4.8,60.9,4.8,61z"/>
	<path class="st0" d="M7.3,64.2c0.5,0,1,0.1,1.4,0.3c0.5,0.2,0.9,0.4,1.3,0.8s0.7,0.8,0.9,1.3c0.2,0.5,0.3,1.1,0.3,1.7
		c0,0.8-0.2,1.4-0.5,2s-0.7,1-1.3,1.3l-1.2-1.6c0.3-0.1,0.5-0.2,0.6-0.4s0.2-0.4,0.3-0.6c0.1-0.2,0.1-0.4,0.1-0.6
		c0-0.3-0.1-0.6-0.2-0.8C9,67.1,8.8,67,8.6,66.8c-0.2-0.1-0.4-0.3-0.7-0.3c-0.2-0.1-0.5-0.1-0.7-0.1c-0.3,0-0.5,0-0.8,0.1
		c-0.3,0.1-0.5,0.2-0.7,0.4c-0.2,0.2-0.4,0.3-0.5,0.6s-0.2,0.5-0.2,0.8c0,0.2,0,0.4,0.1,0.6c0.1,0.2,0.2,0.4,0.3,0.6
		s0.3,0.3,0.6,0.4L5,71.5c-0.4-0.2-0.7-0.4-1-0.8S3.5,70,3.4,69.5c-0.1-0.5-0.2-0.9-0.2-1.4c0-0.6,0.1-1.1,0.4-1.6
		c0.2-0.5,0.5-0.9,0.9-1.2c0.4-0.4,0.8-0.6,1.3-0.8C6.2,64.3,6.7,64.2,7.3,64.2z"/>
	<path class="st0" d="M3.1,74.9c0-0.5,0.1-1,0.2-1.4c0.2-0.4,0.4-0.7,0.7-1c0.3-0.3,0.6-0.5,1-0.6c0.4-0.1,0.7-0.2,1.1-0.2
		c0.4,0,0.8,0.1,1.1,0.2c0.4,0.1,0.7,0.3,1,0.6c0.3,0.3,0.5,0.6,0.7,1s0.2,0.9,0.2,1.4c0,0.5-0.1,1-0.2,1.4c-0.2,0.4-0.4,0.7-0.7,1
		c-0.3,0.3-0.6,0.5-1,0.6c-0.4,0.1-0.7,0.2-1.1,0.2c-0.4,0-0.8-0.1-1.1-0.2c-0.4-0.1-0.7-0.3-1-0.6c-0.3-0.3-0.5-0.6-0.7-1
		C3.2,75.9,3.1,75.5,3.1,74.9z M6.1,73.9c-0.3,0-0.5,0-0.6,0.1c-0.2,0.1-0.3,0.2-0.4,0.4c-0.1,0.2-0.1,0.3-0.1,0.5
		c0,0.2,0,0.4,0.1,0.5s0.2,0.3,0.4,0.4C5.6,75.9,5.8,76,6.1,76c0.2,0,0.5,0,0.6-0.1c0.2-0.1,0.3-0.2,0.4-0.4
		c0.1-0.2,0.1-0.3,0.1-0.5c0-0.2,0-0.4-0.1-0.5c-0.1-0.2-0.2-0.3-0.4-0.4C6.6,74,6.3,73.9,6.1,73.9z"/>
	<path class="st0" d="M3.2,84.7l0-2.1l3.2,0c0.3,0,0.5-0.1,0.6-0.2c0.1-0.1,0.2-0.3,0.2-0.4c0-0.1,0-0.2-0.1-0.4
		c-0.1-0.1-0.2-0.3-0.3-0.4C6.7,81.1,6.6,81,6.4,81l-3.2,0l0-2.1l5.8,0v1.9H8.1c0.2,0.1,0.4,0.3,0.5,0.5C8.8,81.5,8.9,81.8,9,82
		s0.1,0.6,0.1,0.9c0,0.4-0.1,0.7-0.2,1c-0.1,0.2-0.3,0.4-0.5,0.5c-0.2,0.1-0.4,0.2-0.7,0.2c-0.2,0-0.5,0.1-0.7,0.1L3.2,84.7z"/>
	<path class="st0" d="M3.2,85.8l7.9,0l0,3c0,0.9-0.2,1.6-0.5,2.2c-0.4,0.6-0.8,1-1.4,1.3c-0.6,0.3-1.3,0.4-2,0.4
		c-0.8,0-1.5-0.2-2.1-0.5C4.5,92,4,91.5,3.7,90.9c-0.3-0.6-0.5-1.3-0.5-2.1L3.2,85.8z M7.2,90.6c0.4,0,0.8-0.1,1.1-0.2
		c0.3-0.1,0.5-0.3,0.7-0.6c0.2-0.3,0.3-0.6,0.3-1V88l-4.1,0v0.9c0,0.4,0.1,0.7,0.3,1c0.2,0.3,0.4,0.5,0.7,0.6
		C6.4,90.5,6.8,90.6,7.2,90.6z"/>
	<path class="st0" d="M3.1,96.5c0-0.5,0.1-1,0.2-1.4c0.2-0.4,0.4-0.7,0.6-1s0.6-0.5,0.9-0.6c0.4-0.1,0.7-0.2,1.1-0.2
		c0.6,0,1.1,0.1,1.5,0.4c0.5,0.2,0.8,0.6,1.1,1.1s0.4,1.1,0.4,1.7s-0.1,1.3-0.4,1.7C8.4,98.7,8,99,7.6,99.3
		c-0.5,0.2-0.9,0.4-1.5,0.4c-0.1,0-0.2,0-0.3,0c-0.1,0-0.2,0-0.3,0l0-4.1c-0.2,0-0.4,0.1-0.5,0.2c-0.1,0.1-0.2,0.2-0.3,0.4
		c-0.1,0.2-0.1,0.3-0.1,0.5c0,0.2,0.1,0.4,0.2,0.6s0.2,0.3,0.4,0.4l-0.5,1.8c-0.3-0.2-0.6-0.4-0.8-0.6c-0.2-0.3-0.4-0.6-0.6-1
		C3.2,97.4,3.1,96.9,3.1,96.5z M6.7,95.5l0,1.9c0.2,0,0.3-0.1,0.5-0.2c0.1-0.1,0.2-0.2,0.3-0.3c0.1-0.1,0.1-0.3,0.1-0.5
		s0-0.3-0.1-0.5c-0.1-0.1-0.2-0.2-0.3-0.3C7.1,95.6,6.9,95.5,6.7,95.5z"/>
	<path class="st0" d="M11.4,100.3l0,2.1l-5.8,0c-0.2,0-0.4,0-0.5,0.1c-0.1,0.1-0.2,0.2-0.2,0.4c0,0.1,0,0.2,0,0.3
		c0,0.1,0.1,0.2,0.1,0.3l-1.6,0.3c-0.1-0.3-0.2-0.5-0.3-0.8c-0.1-0.3-0.1-0.6-0.1-0.9c0-0.6,0.1-1,0.4-1.3c0.3-0.3,0.7-0.5,1.3-0.5
		L11.4,100.3z"/>
	<path class="st0" d="M3.2,104.3l5.9,0l0,2.1l-5.9,0L3.2,104.3z M9.6,104.3h1.8l0,2.1H9.6L9.6,104.3z"/>
	<path class="st0" d="M3.2,108.9l5.8-2l0,2.2l-3.9,1l3.9,1.1v2l-5.8-2L3.2,108.9z"/>
	<path class="st0" d="M3.1,116.3c0-0.5,0.1-1,0.2-1.4c0.2-0.4,0.4-0.7,0.6-1s0.6-0.5,0.9-0.6c0.4-0.1,0.7-0.2,1.1-0.2
		c0.6,0,1.1,0.1,1.5,0.4c0.5,0.2,0.8,0.6,1.1,1.1s0.4,1.1,0.4,1.7c0,0.7-0.1,1.3-0.4,1.7c-0.3,0.5-0.6,0.8-1.1,1.1
		c-0.5,0.2-1,0.4-1.5,0.4c-0.1,0-0.2,0-0.3,0c-0.1,0-0.2,0-0.3,0l0-4.1c-0.2,0-0.4,0.1-0.5,0.2s-0.2,0.2-0.3,0.4
		c-0.1,0.2-0.1,0.3-0.1,0.5c0,0.2,0.1,0.4,0.2,0.6s0.2,0.3,0.4,0.4l-0.5,1.8c-0.3-0.2-0.6-0.4-0.8-0.6c-0.2-0.3-0.4-0.6-0.6-1
		C3.1,117.2,3.1,116.8,3.1,116.3z M6.7,115.3l0,1.9c0.2,0,0.3-0.1,0.5-0.2c0.1-0.1,0.2-0.2,0.3-0.3c0.1-0.1,0.1-0.3,0.1-0.5
		c0-0.2,0-0.3-0.1-0.5c-0.1-0.1-0.2-0.2-0.3-0.3C7,115.4,6.9,115.4,6.7,115.3z"/>
	<path class="st0" d="M7.3,124.2c0-0.4,0-0.8-0.1-1.1c-0.1-0.3-0.2-0.6-0.4-0.7l-3.5,0l0-2.1l5.8,0v1.9H8c0.4,0.2,0.7,0.5,0.9,0.8
		c0.2,0.3,0.3,0.6,0.3,1c0,0.1,0,0.1,0,0.2s0,0.1,0,0.1L7.3,124.2z"/>
	<path class="st0" d="M3.1,128.5c0-0.4,0.1-0.8,0.3-1.1c0.2-0.3,0.4-0.6,0.8-0.8H3.2l0-1.8l8.2,0l0,2.1l-3.3,0
		c0.3,0.2,0.6,0.4,0.7,0.7c0.2,0.3,0.3,0.7,0.3,1.1c0,0.4-0.1,0.7-0.2,1c-0.2,0.3-0.4,0.6-0.6,0.8c-0.3,0.2-0.6,0.4-1,0.5
		c-0.4,0.1-0.8,0.2-1.2,0.2c-0.4,0-0.8-0.1-1.2-0.2s-0.7-0.3-1-0.6c-0.3-0.2-0.5-0.5-0.6-0.9C3.2,129.3,3.1,128.9,3.1,128.5z
		 M4.9,127.9c0,0.2,0,0.3,0.1,0.5c0.1,0.1,0.1,0.3,0.2,0.4c0.1,0.1,0.2,0.2,0.4,0.2c0.1,0.1,0.3,0.1,0.5,0.1c0.2,0,0.4,0,0.6-0.1
		c0.2-0.1,0.3-0.2,0.5-0.4c0.1-0.2,0.2-0.3,0.2-0.5c0-0.1,0-0.3-0.1-0.4c-0.1-0.1-0.2-0.3-0.3-0.4s-0.3-0.2-0.4-0.3l-1,0
		c-0.1,0.1-0.2,0.1-0.3,0.2c-0.1,0.1-0.1,0.2-0.2,0.2c0,0.1-0.1,0.2-0.1,0.3S4.9,127.8,4.9,127.9z"/>
	<path class="st0" d="M3.1,134.8c0-0.5,0.1-1,0.2-1.4c0.2-0.4,0.4-0.7,0.7-1c0.3-0.3,0.6-0.5,1-0.6c0.4-0.1,0.7-0.2,1.1-0.2
		c0.4,0,0.8,0.1,1.1,0.2s0.7,0.3,1,0.6c0.3,0.3,0.5,0.6,0.7,1s0.2,0.9,0.2,1.4c0,0.5-0.1,1-0.2,1.4c-0.2,0.4-0.4,0.7-0.7,1
		c-0.3,0.3-0.6,0.5-1,0.6c-0.4,0.1-0.7,0.2-1.1,0.2c-0.4,0-0.8-0.1-1.1-0.2c-0.4-0.1-0.7-0.3-1-0.6s-0.5-0.6-0.7-1
		C3.2,135.8,3.1,135.4,3.1,134.8z M6.1,133.8c-0.3,0-0.5,0-0.6,0.1c-0.2,0.1-0.3,0.2-0.4,0.4c-0.1,0.2-0.1,0.3-0.1,0.5
		s0,0.4,0.1,0.5s0.2,0.3,0.4,0.4c0.2,0.1,0.4,0.1,0.6,0.1c0.2,0,0.5,0,0.6-0.1c0.2-0.1,0.3-0.2,0.4-0.4c0.1-0.2,0.1-0.3,0.1-0.5
		s0-0.4-0.1-0.5c-0.1-0.2-0.2-0.3-0.4-0.4C6.5,133.8,6.3,133.8,6.1,133.8z"/>
	<path class="st0" d="M3.2,144.6l0-2.1l3.2,0c0.3,0,0.5-0.1,0.6-0.2c0.1-0.1,0.2-0.3,0.2-0.5c0-0.1,0-0.2-0.1-0.3s-0.2-0.3-0.3-0.4
		c-0.1-0.1-0.3-0.2-0.4-0.3l-3.2,0l0-2.1l8.2,0l0,2.1l-3.2,0c0.3,0.2,0.6,0.5,0.7,0.8c0.2,0.3,0.2,0.7,0.2,1.1c0,0.4-0.1,0.7-0.2,1
		c-0.1,0.2-0.3,0.4-0.5,0.5c-0.2,0.1-0.4,0.2-0.7,0.2c-0.2,0-0.5,0.1-0.7,0.1L3.2,144.6z"/>
</g>
</svg>
